<?xml version="1.0" encoding="iso-8859-1"?>
<!-- Generator: Adobe Illustrator 19.0.0, SVG Export Plug-In . SVG Version: 6.00 Build 0)  -->
<svg version="1.1" id="Layer_1" xmlns="http://www.w3.org/2000/svg" xmlns:xlink="http://www.w3.org/1999/xlink" x="0px" y="0px"
	 viewBox="0 0 512 512" style="enable-background:new 0 0 512 512;" xml:space="preserve">
<path style="fill:#AEACB3;" d="M389.478,112.142c-26.95-26.95-43.265-62.546-46.245-100.269c-0.276-3.486-1.956-6.712-4.657-8.935
	s-6.188-3.251-9.663-2.853c-55.445,6.339-99.447,50.341-105.786,105.786c-0.398,3.473,0.635,6.959,2.857,9.658
	c2.222,2.699,5.446,4.387,8.931,4.661c37.723,2.98,73.319,19.295,100.269,46.245l24.842,24.843l54.293-54.293L389.478,112.142z"/>
<path style="fill:#A9825A;" d="M79.863,512c-7.415,0-14.83-2.829-20.489-8.486c-11.315-11.315-11.315-29.661,0-40.976
	l351.58-351.578c11.316-11.315,29.661-11.315,40.976,0c11.315,11.315,11.315,29.661,0,40.976L100.351,503.514
	C94.693,509.172,87.278,512,79.863,512z"/>
<path style="fill:#7E6142;" d="M360.089,243.776l91.841-91.84c11.315-11.315,11.315-29.661,0-40.976
	c-11.316-11.315-29.661-11.315-40.976,0l-91.841,91.84L360.089,243.776z"/>
<polygon style="fill:#E1E1E3;" points="413.237,135.901 414.321,136.984 414.321,136.984 413.231,135.894 "/>
<path style="fill:#CECED1;" d="M344.832,25.03c-0.71-4.35-1.251-8.739-1.599-13.158c-0.276-3.487-1.956-6.712-4.657-8.935
	s-6.188-3.251-9.664-2.853c-55.445,6.339-99.447,50.341-105.786,105.786c-0.398,3.473,0.635,6.959,2.857,9.658
	c2.222,2.699,5.446,4.387,8.932,4.661c4.419,0.349,8.807,0.888,13.158,1.599C257.004,72.671,295.715,33.96,344.832,25.03z"/>
<path style="fill:#555558;" d="M400.949,234.762c-4.409,4.409-11.557,4.409-15.966,0l-56.857-56.857
	c-4.409-4.409-4.409-11.557,0-15.966l56.857-56.857c4.409-4.409,11.557-4.409,15.966,0l56.857,56.857
	c4.409,4.409,4.409,11.557,0,15.966L400.949,234.762z"/>
<g>
</g>
<g>
</g>
<g>
</g>
<g>
</g>
<g>
</g>
<g>
</g>
<g>
</g>
<g>
</g>
<g>
</g>
<g>
</g>
<g>
</g>
<g>
</g>
<g>
</g>
<g>
</g>
<g>
</g>
</svg>
