<?xml version="1.0" encoding="iso-8859-1"?>
<!-- Generator: Adobe Illustrator 19.0.0, SVG Export Plug-In . SVG Version: 6.00 Build 0)  -->
<svg version="1.1" id="Layer_1" xmlns="http://www.w3.org/2000/svg" xmlns:xlink="http://www.w3.org/1999/xlink" x="0px" y="0px"
	 viewBox="0 0 512 512" style="enable-background:new 0 0 512 512;" xml:space="preserve">
<rect x="471.147" y="8.17" style="fill:#F58E42;" width="32.681" height="495.657"/>
<path style="fill:#A59D8C;" d="M471.149,78.978H299.575c0,0,50.094-70.808,160.68-70.808h10.894V78.978z"/>
<path style="fill:#68615B;" d="M344.632,196.627C329.956,137.275,276.248,93.14,212.427,93.14S94.897,137.274,80.221,196.627
	C77.631,207.1,8.172,503.828,8.172,503.828h408.509C416.681,503.828,347.222,207.101,344.632,196.627z"/>
<path style="fill:#FEFFFF;" d="M212.427,136.714c-51.139,0-92.595,41.457-92.595,92.595v59.915h32.681l31.164,65.361h57.502
	l31.164-65.361h32.681V229.31C305.022,178.171,263.566,136.714,212.427,136.714z"/>
<g>
	<path style="fill:#440852;" d="M503.83,0h-43.574C401.072,0,358.87,20.008,333.889,36.793
		c-27.28,18.328-40.437,36.694-40.984,37.467c-1.764,2.494-1.989,5.762-0.586,8.473c1.404,2.713,4.202,4.415,7.256,4.415h160.68
		c0.956,0,1.87-0.173,2.723-0.475v417.154c0,4.512,3.657,8.17,8.17,8.17s8.17-3.658,8.17-8.17V16.34h16.34v487.487
		c0,4.512,3.657,8.17,8.17,8.17s8.17-3.658,8.17-8.17V8.17C512,3.658,508.342,0,503.83,0z M462.979,71.283
		c-0.853-0.302-1.767-0.475-2.723-0.475H317.793c6.131-6.015,14.726-13.471,25.842-20.875
		c23.007-15.324,61.918-33.592,116.621-33.592h2.723V71.283z"/>
	<path style="fill:#440852;" d="M352.563,194.666c-7.603-30.748-25.545-58.604-50.523-78.437
		c-25.754-20.449-56.74-31.259-89.613-31.259c-32.871,0-63.859,10.809-89.613,31.258c-24.979,19.833-42.921,47.689-50.525,78.438
		c-2.571,10.403-69.235,295.182-72.072,307.3c-1.028,4.393,1.7,8.789,6.094,9.817c4.382,1.023,8.788-1.699,9.817-6.093
		c0.695-2.967,69.477-296.797,72.024-307.103c14.164-57.275,65.267-97.277,124.275-97.277s110.111,40.002,124.274,97.277
		c2.548,10.305,71.33,304.135,72.025,307.103c0.882,3.767,4.24,6.31,7.948,6.31c0.617,0,1.244-0.07,1.869-0.217
		c4.393-1.028,7.122-5.424,6.094-9.817C421.799,489.848,355.136,205.069,352.563,194.666z"/>
	<path style="fill:#440852;" d="M212.427,128.544c-55.563,0-100.766,45.203-100.766,100.766v187.131c0,4.512,3.657,8.17,8.17,8.17
		c4.513,0,8.17-3.658,8.17-8.17v-37.45c24.488,17.729,53.882,27.34,84.425,27.34s59.938-9.611,84.425-27.34v124.837
		c0,4.512,3.657,8.17,8.17,8.17s8.17-3.658,8.17-8.17V229.31C313.192,173.747,267.989,128.544,212.427,128.544z M212.427,389.99
		c-31.185,0-61.025-11.301-84.425-31.89v-60.706h19.355l28.945,60.708c1.355,2.843,4.225,4.654,7.375,4.654h57.502
		c3.15,0,6.019-1.811,7.375-4.654l28.944-60.708h19.355V358.1C273.45,378.689,243.612,389.99,212.427,389.99z M296.852,281.054
		h-24.511c-3.15,0-6.019,1.81-7.375,4.654l-28.945,60.708h-47.189l-28.945-60.708c-1.355-2.843-4.225-4.654-7.375-4.654h-24.511
		V229.31c0-46.553,37.874-84.425,84.425-84.425s84.425,37.873,84.425,84.425L296.852,281.054L296.852,281.054z"/>
	<path style="fill:#440852;" d="M119.831,440.951c-4.513,0-8.17,3.658-8.17,8.17v54.706c0,4.512,3.657,8.17,8.17,8.17
		c4.513,0,8.17-3.658,8.17-8.17v-54.706C128.002,444.609,124.344,440.951,119.831,440.951z"/>
	<path style="fill:#440852;" d="M241.177,281.054h-2.723v-2.723c0-4.512-3.657-8.17-8.17-8.17s-8.17,3.658-8.17,8.17v2.723h-19.374
		v-2.723c0-4.512-3.657-8.17-8.17-8.17s-8.17,3.658-8.17,8.17v2.723h-2.723c-4.513,0-8.17,3.658-8.17,8.17s3.657,8.17,8.17,8.17
		h2.723v2.723c0,4.512,3.657,8.17,8.17,8.17s8.17-3.658,8.17-8.17v-2.723h19.374v2.723c0,4.512,3.657,8.17,8.17,8.17
		s8.17-3.658,8.17-8.17v-2.723h2.723c4.513,0,8.17-3.658,8.17-8.17S245.69,281.054,241.177,281.054z"/>
	<path style="fill:#440852;" d="M191.846,240.203v-5.447c0-4.512-3.657-8.17-8.17-8.17c-3.558,0-6.584,2.273-7.705,5.447h-11.359
		c-4.513,0-8.17,3.658-8.17,8.17s3.657,8.17,8.17,8.17h19.064C188.189,248.373,191.846,244.715,191.846,240.203z"/>
	<path style="fill:#440852;" d="M260.241,232.033h-11.359c-1.121-3.173-4.148-5.447-7.705-5.447c-4.513,0-8.17,3.658-8.17,8.17
		v5.447c0,4.512,3.657,8.17,8.17,8.17h19.064c4.513,0,8.17-3.658,8.17-8.17S264.754,232.033,260.241,232.033z"/>
</g>
<g>
</g>
<g>
</g>
<g>
</g>
<g>
</g>
<g>
</g>
<g>
</g>
<g>
</g>
<g>
</g>
<g>
</g>
<g>
</g>
<g>
</g>
<g>
</g>
<g>
</g>
<g>
</g>
<g>
</g>
</svg>
