<?xml version="1.0" encoding="iso-8859-1"?>
<!-- Generator: Adobe Illustrator 19.0.0, SVG Export Plug-In . SVG Version: 6.00 Build 0)  -->
<svg version="1.1" id="Capa_1" xmlns="http://www.w3.org/2000/svg" xmlns:xlink="http://www.w3.org/1999/xlink" x="0px" y="0px"
	 viewBox="0 0 60 60" style="enable-background:new 0 0 60 60;" xml:space="preserve">
<g>
	<g>
		<path d="M27,2h4v5h2V1c0-0.6-0.4-1-1-1h-6c-0.6,0-1,0.4-1,1v6h2V2z"/>
		<path d="M33.3,26.5c0.2,0.3,0.5,0.5,0.9,0.5H45v-2H34.8c-0.5-0.7-1.1-1.3-1.8-1.8V14h-2v9.8c0,0.4,0.2,0.7,0.5,0.9
			C32.2,25.1,32.9,25.8,33.3,26.5z"/>
		<path d="M58,31H34.2c-0.4,0-0.7,0.2-0.9,0.5c-0.4,0.7-1.1,1.4-1.8,1.8c-0.3,0.2-0.5,0.5-0.5,0.9V46h2V34.8
			c0.7-0.5,1.3-1.1,1.8-1.8H59c0.6,0,1-0.4,1-1v-3h-2V31z"/>
		<path d="M31,58h-4v-6h-2v7c0,0.6,0.4,1,1,1h6c0.6,0,1-0.4,1-1v-7h-2V58z"/>
		<path d="M27,46V34.2c0-0.4-0.2-0.7-0.5-0.9c-0.7-0.4-1.4-1.1-1.8-1.8c-0.2-0.3-0.5-0.5-0.9-0.5H10v2h13.2c0.5,0.7,1.1,1.3,1.8,1.8
			V46H27z"/>
		<path d="M2,27h21.8c0.4,0,0.7-0.2,0.9-0.5c0.4-0.7,1.1-1.4,1.8-1.8c0.3-0.2,0.5-0.5,0.5-0.9V14h-2v9.2c-0.7,0.5-1.3,1.1-1.8,1.8H1
			c-0.6,0-1,0.4-1,1v2h2V27z"/>
		<path d="M32,29c0-1.7-1.3-3-3-3s-3,1.3-3,3s1.3,3,3,3S32,30.7,32,29z M28,29c0-0.6,0.4-1,1-1s1,0.4,1,1s-0.4,1-1,1S28,29.6,28,29z
			"/>
		<path d="M52,7c0-2.2-1.8-4-4-4s-4,1.8-4,4h2c0-1.1,0.9-2,2-2s2,0.9,2,2s-0.9,2-2,2H7v2h41C50.2,11,52,9.2,52,7z"/>
		<path d="M50,25c-1.1,0-2-0.9-2-2s0.9-2,2-2s2,0.9,2,2h2c0-2.2-1.8-4-4-4s-4,1.8-4,4s1.8,4,4,4h10v-2H50z"/>
		<path d="M14,35H4c-1.1,0-2-0.9-2-2s0.9-2,2-2s2,0.9,2,2h2c0-2.2-1.8-4-4-4s-4,1.8-4,4s1.8,4,4,4h10V35z"/>
		<path d="M9,46c0-1.1,0.9-2,2-2s2,0.9,2,2h2c0-2.2-1.8-4-4-4s-4,1.8-4,4s1.8,4,4,4h41v-2H11C9.9,48,9,47.1,9,46z"/>
		<rect x="36" y="35" width="2" height="2"/>
		<rect x="40" y="35" width="2" height="2"/>
		<rect x="44" y="35" width="2" height="2"/>
		<rect x="48" y="35" width="2" height="2"/>
		<rect x="52" y="35" width="2" height="2"/>
		<rect x="56" y="35" width="2" height="2"/>
		<rect x="36" y="39" width="2" height="2"/>
		<rect x="40" y="39" width="2" height="2"/>
		<rect x="44" y="39" width="2" height="2"/>
		<rect x="48" y="39" width="2" height="2"/>
		<rect x="36" y="43" width="2" height="2"/>
		<rect x="40" y="43" width="2" height="2"/>
		<rect x="20" y="21" width="2" height="2"/>
		<rect x="16" y="21" width="2" height="2"/>
		<rect x="12" y="21" width="2" height="2"/>
		<rect x="8" y="21" width="2" height="2"/>
		<rect x="4" y="21" width="2" height="2"/>
		<rect y="21" width="2" height="2"/>
		<rect x="20" y="17" width="2" height="2"/>
		<rect x="16" y="17" width="2" height="2"/>
		<rect x="12" y="17" width="2" height="2"/>
		<rect x="8" y="17" width="2" height="2"/>
		<rect x="20" y="13" width="2" height="2"/>
		<rect x="16" y="13" width="2" height="2"/>
	</g>
</g>
<g>
</g>
<g>
</g>
<g>
</g>
<g>
</g>
<g>
</g>
<g>
</g>
<g>
</g>
<g>
</g>
<g>
</g>
<g>
</g>
<g>
</g>
<g>
</g>
<g>
</g>
<g>
</g>
<g>
</g>
</svg>
